<svg id="Vrstva_1" data-name="Vrstva 1" xmlns="http://www.w3.org/2000/svg" viewBox="0 0 480 480" height="480" width="480">
  <defs>
    <style>
      .cls-1 {
        fill: #fff;
      }
    </style>
  </defs>
  <title>ball</title>
  <circle class="cls-1" cx="240" cy="240" r="236.69"/>
  <path d="M240,0C107.45,0,0,107.45,0,240S107.45,480,240,480,480,372.55,480,240,372.48.15,240,0Zm8.57,69.19L332,35.84a222.57,222.57,0,0,1,27.41,14.78l.22.13a224.57,224.57,0,0,1,24.7,18.11l.67.59q5.25,4.47,10.22,9.26c.42.41.86.8,1.28,1.22q5.21,5.08,10.09,10.48c.27.31.52.63.79.93,2.86,3.2,5.6,6.52,8.27,9.88.64.8,1.28,1.6,1.9,2.4,2.89,3.75,5.69,7.56,8.33,11.49l-16.63,70.7-81.84,27.28L248.59,150ZM62.44,103.67c.62-.8,1.26-1.6,1.9-2.4q3.94-5,8.16-9.77c.31-.34.59-.68.89-1q4.85-5.42,10-10.48c.4-.39.8-.8,1.22-1.16q4.92-4.75,10.13-9.21l.8-.67a228.63,228.63,0,0,1,24.46-18l.32-.2A224.49,224.49,0,0,1,147.62,36l83.81,33.19V150L152.6,213.05,70.77,185.82l-16.63-70.7C56.8,111.2,59.57,107.4,62.44,103.67ZM52.8,362.76q-3.52-5.37-6.75-11l-.51-.9q-3.21-5.55-6.06-11.29l-.07-.12a225.21,225.21,0,0,1-10.53-24.8v-.08c-1.42-4-2.72-8.1-3.92-12.22l-.43-1.52q-1.65-5.81-3-11.74c-.08-.39-.17-.76-.25-1.14a221.28,221.28,0,0,1-4.23-27.1l48.84-58.6,81.27,27.08,23.58,94.34L132,375.27Zm240.47,94.78c-4,1-8.1,1.85-12.21,2.62l-1.73.31q-5.25.94-10.58,1.6l-2.82.36c-3.29.39-6.61.68-9.94.91-1,.07-2.08.18-3.13.25-4.25.26-8.54.41-12.86.41q-5.94,0-11.8-.31c-.47,0-.93-.08-1.4-.12-3.48-.2-6.94-.46-10.4-.79l-.4-.08c-7.57-.82-15.11-2-22.56-3.59L146.12,385l38.15-50.87H295.73l38.77,51.2ZM458.77,288c-.08.38-.18.75-.26,1.14q-1.33,5.92-3,11.74l-.43,1.52c-1.21,4.12-2.5,8.2-3.92,12.22v.08a223.37,223.37,0,0,1-10.54,24.8l-.07.12q-2.86,5.75-6.05,11.29l-.52.9q-3.19,5.6-6.73,10.94L348.34,375.2l-39-51.52,23.58-94.31,81.26-27.09L463,260.89A223.66,223.66,0,0,1,458.77,288Z" transform="translate(0 0)"/>
</svg>
