<svg xmlns="http://www.w3.org/2000/svg" viewBox="0 0 496 496">
  <defs>
    <style>
      .cls-1 {
        fill: #eaeaea;
        stroke: #000;
        stroke-miterlimit: 10;
      }
    </style>
  </defs>
  <title>wheel</title>
  <g id="Vrstva_1" data-name="Vrstva 1">
    <g>
      <circle class="cls-1" cx="248" cy="248" r="243.78"/>
      <g id="Layer_13" data-name="Layer 13">
        <path d="M235.36,230.48A8,8,0,0,0,240,232a7.38,7.38,0,0,0,3.68-.88A8,8,0,0,0,248,224V161.44a8,8,0,0,0-7.88-8.12,9.14,9.14,0,0,0-1.48.12,104,104,0,0,0-56,28.48,8,8,0,0,0,1,12.24Zm-3.36-59v37L201.44,187A88.4,88.4,0,0,1,232,171.44Z" transform="translate(-8 -8)"/>
        <path d="M279.2,256.88a8,8,0,0,0,3.36,6.88l56,39.36a8,8,0,0,0,4.56,1.44,9,9,0,0,0,2.08,0,8,8,0,0,0,5.2-4.4A102.36,102.36,0,0,0,360,256a104,104,0,0,0-6.64-36.4,8,8,0,0,0-10.29-4.71,8.29,8.29,0,0,0-1.31.63L283,250.32A8,8,0,0,0,279.2,256.88Zm62.08-22.48A89.9,89.9,0,0,1,344,256a86.72,86.72,0,0,1-4.72,28.24l-37.44-26.4Z" transform="translate(-8 -8)"/>
        <path d="M232.8,255.12a8,8,0,0,0-3.36-6.88l-56-39.36a8,8,0,0,0-11.14,2,8.19,8.19,0,0,0-.7,1.22A102.21,102.21,0,0,0,152,256a104,104,0,0,0,6.64,36.4,8,8,0,0,0,4.88,4.8,10.29,10.29,0,0,0,2.64.4,8,8,0,0,0,4.08-1.12L229,261.68A8,8,0,0,0,232.8,255.12ZM170.72,277.6A89.9,89.9,0,0,1,168,256a86.72,86.72,0,0,1,4.72-28.24l37.44,26.4Z" transform="translate(-8 -8)"/>
        <path d="M244,278.32a8,8,0,0,0-8,0L179.44,312a8,8,0,0,0-2.8,11,7.36,7.36,0,0,0,.8,1.12,104,104,0,0,0,61.2,34.48H240a8,8,0,0,0,8-8V285.2A8,8,0,0,0,244,278.32Zm-12,62.24a87.87,87.87,0,0,1-35.76-20.08L232,299.28Z" transform="translate(-8 -8)"/>
        <path d="M276.64,281.52A8,8,0,0,0,264,288v62.48a8,8,0,0,0,8,8h1.36a104,104,0,0,0,56-28.48,8,8,0,0,0-1-12.24Zm3.36,59v-37L310.56,325A88.4,88.4,0,0,1,280,340.56Z" transform="translate(-8 -8)"/>
        <path d="M268,233.68a8,8,0,0,0,8,0L332.56,200a8,8,0,0,0,2.8-11,7.36,7.36,0,0,0-.8-1.12,104,104,0,0,0-61.2-34.48,8,8,0,0,0-9.36,7.92v65.36A8,8,0,0,0,268,233.68Zm12-62.24a87.87,87.87,0,0,1,35.76,20.08L280,212.72Z" transform="translate(-8 -8)"/>
        <path d="M256,8C119,8,8,119,8,256S119,504,256,504,504,393,504,256,393,8,256,8Zm0,480C127.87,488,24,384.13,24,256S127.87,24,256,24,488,127.87,488,256,384.13,488,256,488Z" transform="translate(-8 -8)"/>
        <path d="M256,120A136,136,0,1,0,392,256,136,136,0,0,0,256,120Zm0,256A120,120,0,1,1,376,256,120,120,0,0,1,256,376Z" transform="translate(-8 -8)"/>
        <circle cx="248" cy="248" r="16"/>
        <path d="M256,56V72A184,184,0,0,1,440,256h16C456,145.54,366.46,56,256,56Z" transform="translate(-8 -8)"/>
        <path d="M72,256H56c0,110.46,89.54,200,200,200V440A184,184,0,0,1,72,256Z" transform="translate(-8 -8)"/>
      </g>
    </g>
  </g>
</svg>
